<?xml version="1.0" encoding="UTF-8" standalone="no"?>
<!DOCTYPE svg PUBLIC "-//W3C//DTD SVG 1.1//EN"
"http://www.w3.org/Graphics/SVG/1.1/DTD/svg11.dtd">
<svg viewBox="0 0 909 1286" version="1.1" xmlns="http://www.w3.org/2000/svg" xmlns:xlink="http://www.w3.org/1999/xlink">
<defs>
<style type="text/css"><![CDATA[
.g2_146{
fill: none;
stroke: #000000;
stroke-width: 1;
stroke-linecap: butt;
stroke-linejoin: miter;
}
.g1_146{
}
]]></style>
</defs>
<path d="M187,123l2,0l0,-3l-2,0l0,3Z" class="g1_146" />
<path d="M187,123l536,0l0,-3l-536,0l0,3Z" class="g1_146" />
<path d="M720,123l3,0l0,-3l-3,0l0,3Z" class="g1_146" />
<path d="M187,157l2,0l0,-34l-2,0l0,34Z" class="g1_146" />
<path d="M720,157l3,0l0,-34l-3,0l0,34Z" class="g1_146" />
<path d="M187,186l2,0l0,-2l-2,0l0,2Z" class="g1_146" />
<path d="M187,186l536,0l0,-2l-536,0l0,2Z" class="g1_146" />
<path d="M720,186l3,0l0,-2l-3,0l0,2Z" class="g1_146" />
<path d="M187,184l2,0l0,-27l-2,0l0,27Z" class="g1_146" />
<path d="M720,184l3,0l0,-27l-3,0l0,27Z" class="g1_146" />
<path d="M87.5,227.5l107,0" class="g2_146" />
<path d="M87.5,312.5l41,0" class="g2_146" />
<image x="306" y="450" width="300" height="78" xlink:href="img/1.png" />
<image x="307" y="525" width="298" height="3" xlink:href="img/2.png" />
<image x="306" y="351.333" width="300" height="2" xlink:href="img/3.png" transform="scale(1 , 1.5)" />
<image x="305" y="529" width="302" height="2" xlink:href="img/4.png" />
<image x="305" y="530" width="303" height="2" xlink:href="img/5.png" />
<image x="303" y="531" width="305" height="2" xlink:href="img/6.png" />
<image x="302" y="532" width="307" height="2" xlink:href="img/7.png" />
<image x="301.022" y="355.333" width="308" height="2" xlink:href="img/8.png" transform="scale(1.003 , 1.5)" />
<image x="301" y="535" width="310" height="2" xlink:href="img/9.png" />
<image x="300" y="536" width="312" height="2" xlink:href="img/10.png" />
<image x="299" y="537" width="314" height="3" xlink:href="img/11.png" />
<image x="296.063" y="404.25" width="316" height="3" xlink:href="img/12.png" transform="scale(1.003 , 1.333)" />
<image x="295" y="542" width="322" height="3" xlink:href="img/13.png" />
<image x="294" y="544" width="324" height="3" xlink:href="img/14.png" />
<image x="293" y="409.5" width="326" height="3" xlink:href="img/15.png" transform="scale(1 , 1.333)" />
<image x="291" y="549" width="328" height="2" xlink:href="img/16.png" />
<image x="291" y="550" width="329" height="2" xlink:href="img/17.png" />
<image x="290" y="551" width="330" height="2" xlink:href="img/18.png" />
<image x="290" y="414" width="331" height="3" xlink:href="img/19.png" transform="scale(1 , 1.333)" />
<image x="289" y="555" width="334" height="3" xlink:href="img/20.png" />
<image x="289" y="557" width="335" height="2" xlink:href="img/21.png" />
<image x="287.142" y="372" width="335" height="2" xlink:href="img/22.png" transform="scale(1.002 , 1.5)" />
<image x="288" y="560" width="337" height="2" xlink:href="img/23.png" />
<image x="287" y="561" width="338" height="2" xlink:href="img/24.png" />
<image x="287" y="562" width="339" height="2" xlink:href="img/25.png" />
<image x="284.164" y="422.25" width="340" height="3" xlink:href="img/26.png" transform="scale(1.002 , 1.333)" />
<image x="284" y="566" width="343" height="3" xlink:href="img/27.png" />
<image x="284" y="568" width="344" height="2" xlink:href="img/28.png" />
<image x="283" y="569" width="345" height="3" xlink:href="img/29.png" />
<image x="281.189" y="428.25" width="347" height="3" xlink:href="img/30.png" transform="scale(1.002 , 1.333)" />
<image x="281" y="574" width="350" height="3" xlink:href="img/31.png" />
<image x="280" y="576" width="351" height="2" xlink:href="img/32.png" />
<image x="280" y="432.75" width="352" height="3" xlink:href="img/33.png" transform="scale(1 , 1.333)" />
<image x="278" y="580" width="354" height="2" xlink:href="img/34.png" />
<image x="277.216" y="464.8" width="353.999" height="4" xlink:href="img/35.png" transform="scale(1.002 , 1.25)" />
<image x="277" y="585" width="356" height="2" xlink:href="img/36.png" />
<image x="277" y="586" width="357" height="4" xlink:href="img/37.png" />
<image x="275.233" y="490.833" width="358.999" height="5" xlink:href="img/38.png" transform="scale(1.002 , 1.2)" />
<image x="275" y="494.999" width="362" height="5" xlink:href="img/39.png" transform="scale(1 , 1.2)" />
<image x="274" y="599" width="364" height="4" xlink:href="img/40.png" />
<image x="271.256" y="501.666" width="365" height="5" xlink:href="img/41.png" transform="scale(1.002 , 1.2)" />
<image x="271.258" y="505.833" width="366" height="5" xlink:href="img/42.png" transform="scale(1.002 , 1.2)" />
<image x="271" y="612" width="368" height="2" xlink:href="img/43.png" />
<image x="271" y="551.699" width="369" height="9" xlink:href="img/44.png" transform="scale(1 , 1.111)" />
<image x="270" y="622" width="370" height="28" xlink:href="img/45.png" />
<image x="271" y="649" width="369" height="8" xlink:href="img/46.png" />
<image x="271" y="546.666" width="368" height="5" xlink:href="img/47.png" transform="scale(1 , 1.2)" />
<image x="272" y="661" width="367" height="2" xlink:href="img/48.png" />
<image x="271.256" y="529.6" width="365" height="4" xlink:href="img/49.png" transform="scale(1.002 , 1.25)" />
<image x="274" y="666" width="364" height="5" xlink:href="img/50.png" />
<image x="274" y="446.666" width="363" height="2" xlink:href="img/51.png" transform="scale(1 , 1.5)" />
<image x="275" y="672" width="362" height="4" xlink:href="img/52.png" />
<image x="275" y="675" width="361" height="2" xlink:href="img/53.png" />
<image x="275.233" y="563.333" width="358.999" height="5" xlink:href="img/54.png" transform="scale(1.002 , 1.2)" />
<image x="277" y="544.8" width="357" height="4" xlink:href="img/55.png" transform="scale(1 , 1.25)" />
<image x="277" y="685" width="356" height="2" xlink:href="img/56.png" />
<image x="278" y="686" width="355" height="3" xlink:href="img/57.png" />
<image x="277.214" y="516" width="353" height="3" xlink:href="img/58.png" transform="scale(1.002 , 1.333)" />
<image x="280" y="691" width="351" height="3" xlink:href="img/59.png" />
<image x="281" y="693" width="350" height="2" xlink:href="img/60.png" />
<image x="281" y="694" width="349" height="2" xlink:href="img/61.png" />
<image x="281.189" y="463.333" width="347" height="2" xlink:href="img/62.png" transform="scale(1.002 , 1.5)" />
<image x="282" y="697" width="346" height="3" xlink:href="img/63.png" />
<image x="283" y="699" width="345" height="3" xlink:href="img/64.png" />
<image x="284" y="525.75" width="343" height="3" xlink:href="img/65.png" transform="scale(1 , 1.333)" />
<image x="284" y="704" width="342" height="2" xlink:href="img/66.png" />
<image x="285" y="705" width="341" height="2" xlink:href="img/67.png" />
<image x="285" y="706" width="340" height="2" xlink:href="img/68.png" />
<image x="287" y="530.25" width="338" height="3" xlink:href="img/69.png" transform="scale(1 , 1.333)" />
<image x="288" y="710" width="336" height="3" xlink:href="img/70.png" />
<image x="289" y="712" width="334" height="3" xlink:href="img/71.png" />
<image x="289" y="476" width="332" height="2" xlink:href="img/72.png" transform="scale(1 , 1.5)" />
<image x="290" y="716" width="331" height="2" xlink:href="img/73.png" />
<image x="290" y="717" width="330" height="2" xlink:href="img/74.png" />
<image x="290" y="718" width="329" height="2" xlink:href="img/75.png" />
<image x="291" y="719" width="328" height="2" xlink:href="img/76.png" />
<image x="293" y="480" width="326" height="2" xlink:href="img/77.png" transform="scale(1 , 1.5)" />
<image x="293" y="722" width="325" height="2" xlink:href="img/78.png" />
<image x="294" y="723" width="324" height="2" xlink:href="img/79.png" />
<image x="295" y="724" width="322" height="3" xlink:href="img/80.png" />
<image x="296" y="484" width="319" height="2" xlink:href="img/81.png" transform="scale(1 , 1.5)" />
<image x="296" y="728" width="318" height="2" xlink:href="img/82.png" />
<image x="297" y="729" width="317" height="2" xlink:href="img/83.png" />
<image x="299" y="730" width="314" height="2" xlink:href="img/84.png" />
<image x="299" y="731" width="313" height="2" xlink:href="img/85.png" />
<image x="300" y="488" width="312" height="2" xlink:href="img/86.png" transform="scale(1 , 1.5)" />
<image x="301" y="734" width="310" height="3" xlink:href="img/87.png" />
<image x="302" y="736" width="307" height="2" xlink:href="img/88.png" />
<image x="302.006" y="552.75" width="304" height="3" xlink:href="img/89.png" transform="scale(1.003 , 1.333)" />
<image x="305" y="740" width="302" height="2" xlink:href="img/90.png" />
<image x="306" y="741" width="300" height="2" xlink:href="img/91.png" />
<image x="306" y="742" width="299" height="2" xlink:href="img/92.png" />
<image x="307" y="743" width="298" height="2" xlink:href="img/93.png" />
<image x="308" y="744" width="295" height="2" xlink:href="img/94.png" />
<image x="307.941" y="496.666" width="291" height="2" xlink:href="img/95.png" transform="scale(1.003 , 1.5)" />
<image x="311" y="747" width="290" height="3" xlink:href="img/96.png" />
<image x="312" y="749" width="288" height="2" xlink:href="img/97.png" />
<image x="314" y="750" width="284" height="2" xlink:href="img/98.png" />
<image x="315" y="500.666" width="281" height="2" xlink:href="img/99.png" transform="scale(1 , 1.5)" />
<image x="316" y="753" width="279" height="2" xlink:href="img/100.png" />
<image x="318" y="754" width="276" height="2" xlink:href="img/101.png" />
<image x="319" y="755" width="275" height="2" xlink:href="img/102.png" />
<image x="318.823" y="567" width="271" height="3" xlink:href="img/103.png" transform="scale(1.003 , 1.333)" />
<image x="319" y="756" width="274" height="63" xlink:href="img/104.png" />
</svg>